# xmcd CD database file
#
# Track frame offsets:
#	150
#	23680
#	61645
#	77885
#	91465
#	105733
#	127458
#	153353
#	172563
#	188010
#
# Disc length: 2840 seconds
#
# Revision: 0
# Processed by: cddbd v1.5.2PL0 Copyright (c) Steve Scherf et al.
# Submitted via: CDex 1.70beta1
#
DISCID=720b160a
DTITLE=John Petters Red Hot Seven With Wally Fawkes - Mixed Salad
DYEAR=1900
DGENRE=Jazz
TTITLE0=Shim-Me-Sha-Wabble
TTITLE1=Out Of The Gallion
TTITLE2=Mixed Salad
TTITLE3=The Coffee Grinder
TTITLE4=Short Dress Gal
TTITLE5=Revoulutionary Blues
TTITLE6=Cakewalking Babies From Home
TTITLE7=Flook's Fancy
TTITLE8=Wolverine Blues
TTITLE9=Once In A While
EXTD=
EXTT0=
EXTT1=
EXTT2=
EXTT3=
EXTT4=
EXTT5=
EXTT6=
EXTT7=
EXTT8=
EXTT9=
PLAYORDER=
